<?xml version="1.0" encoding="UTF-8"?>
<!DOCTYPE svg PUBLIC "-//W3C//DTD SVG 1.1//EN" "http://www.w3.org/Graphics/SVG/1.1/DTD/svg11.dtd">
<svg xmlns="http://www.w3.org/2000/svg" version="1.1" width="450px" height="450px" style="shape-rendering:geometricPrecision; text-rendering:geometricPrecision; image-rendering:optimizeQuality; fill-rule:evenodd; clip-rule:evenodd" xmlns:xlink="http://www.w3.org/1999/xlink">
<g><path style="opacity:0.808" fill="#718ad1" d="M 280.5,38.5 C 277.833,38.1667 275.167,37.8333 272.5,37.5C 252.064,33.7299 231.397,32.5632 210.5,34C 201.277,36.2595 191.943,37.7595 182.5,38.5C 215.18,29.2211 247.847,29.2211 280.5,38.5 Z"/></g>
<g><path style="opacity:1" fill="#5b7ce3" d="M 272.5,37.5 C 272.918,38.2216 273.584,38.7216 274.5,39C 273.062,39.2189 271.729,39.7189 270.5,40.5C 277.274,42.9051 276.94,43.9051 269.5,43.5C 269.5,42.5 269.5,41.5 269.5,40.5C 267.738,40.3573 266.071,40.6906 264.5,41.5C 261.654,40.6015 258.82,39.6015 256,38.5C 255.667,38.8333 255.333,39.1667 255,39.5C 251.744,38.6517 248.411,37.985 245,37.5C 240.235,38.0446 235.401,38.0446 230.5,37.5C 221.064,38.6996 211.398,39.533 201.5,40C 195.667,43.1071 189.834,43.9405 184,42.5C 183.5,42.6667 183,42.8333 182.5,43C 183.517,44.0495 183.684,45.2161 183,46.5C 178.781,46.0536 174.614,46.0536 170.5,46.5C 169.062,46.7189 167.729,47.2189 166.5,48C 167.833,48.6667 167.833,49.3333 166.5,50C 164.5,50.3333 162.5,50.6667 160.5,51C 158.757,54.2033 157.091,57.3699 155.5,60.5C 151.91,58.4494 148.244,56.6161 144.5,55C 146.675,53.8187 148.842,52.6521 151,51.5C 152.326,51.7549 153.326,52.4216 154,53.5C 154.333,52.1667 154.667,50.8333 155,49.5C 157.167,48.5119 159,47.1786 160.5,45.5C 167.372,43.397 174.372,41.897 181.5,41C 182.252,40.3292 182.586,39.4959 182.5,38.5C 191.943,37.7595 201.277,36.2595 210.5,34C 231.397,32.5632 252.064,33.7299 272.5,37.5 Z"/></g>
<g><path style="opacity:1" fill="#5e80e1" d="M 272.5,37.5 C 275.167,37.8333 277.833,38.1667 280.5,38.5C 313.673,46.7454 342.339,62.7454 366.5,86.5C 367.757,89.4274 369.757,91.7607 372.5,93.5C 384.951,105.731 394.951,119.731 402.5,135.5C 404.658,143.266 406.658,151.099 408.5,159C 406.973,164.806 405.639,170.64 404.5,176.5C 404.5,177.167 404.167,177.5 403.5,177.5C 402.167,177.5 400.833,177.5 399.5,177.5C 399.5,179.167 399.5,180.833 399.5,182.5C 398.167,182.5 396.833,182.5 395.5,182.5C 395.5,183.833 395.5,185.167 395.5,186.5C 393.738,186.643 392.071,186.309 390.5,185.5C 389.289,186.274 389.289,187.107 390.5,188C 382.999,191.775 374.999,193.275 366.5,192.5C 360.47,191.653 355.47,188.987 351.5,184.5C 350.458,181.07 348.458,178.403 345.5,176.5C 344.096,171.68 342.096,167.013 339.5,162.5C 339.043,161.702 338.376,161.369 337.5,161.5C 333.811,157.135 330.478,152.469 327.5,147.5C 325.878,144.862 324.211,142.196 322.5,139.5C 321.274,137.722 319.607,136.722 317.5,136.5C 313.722,131.383 309.055,127.383 303.5,124.5C 295.147,119.322 286.481,114.656 277.5,110.5C 277.53,109.503 277.03,108.836 276,108.5C 257.932,100.939 239.099,98.4389 219.5,101C 211.185,102.441 202.852,103.775 194.5,105C 192.654,106.03 190.987,107.196 189.5,108.5C 181.421,112.306 173.421,116.306 165.5,120.5C 163.973,120.427 162.973,121.094 162.5,122.5C 160.801,122.34 159.134,122.506 157.5,123C 154.659,127.007 151.325,130.507 147.5,133.5C 143.403,130.633 142.403,131.633 144.5,136.5C 143.127,136.343 141.793,136.51 140.5,137C 141.609,138.813 140.942,139.646 138.5,139.5C 138.5,140.5 138.5,141.5 138.5,142.5C 137.89,143.391 137.557,144.391 137.5,145.5C 136.833,146.833 135.833,147.833 134.5,148.5C 132.198,150.389 129.531,151.556 126.5,152C 127.428,152.388 128.095,153.055 128.5,154C 126.816,156.244 125.816,158.744 125.5,161.5C 125.5,161.833 125.5,162.167 125.5,162.5C 121.678,163.18 120.011,165.513 120.5,169.5C 116.843,169.12 115.843,170.453 117.5,173.5C 115.612,176.937 114.612,180.604 114.5,184.5C 113.533,189.712 112.2,194.712 110.5,199.5C 108.942,203.898 107.775,208.564 107,213.5C 106.077,222.728 106.577,231.728 108.5,240.5C 109.137,245.853 109.97,251.186 111,256.5C 111.383,257.056 111.883,257.389 112.5,257.5C 112.804,260.522 113.304,263.522 114,266.5C 114.708,267.381 115.542,268.047 116.5,268.5C 116.734,274.661 119.067,279.661 123.5,283.5C 126.414,287.658 129.081,291.991 131.5,296.5C 132.08,298.749 133.413,300.415 135.5,301.5C 136.419,304.089 138.086,306.089 140.5,307.5C 141.833,310.833 144.167,313.167 147.5,314.5C 148.833,315.167 149.833,316.167 150.5,317.5C 151.828,325.49 156.495,329.157 164.5,328.5C 167.14,329.82 169.807,331.153 172.5,332.5C 173.475,334.193 174.808,335.693 176.5,337C 180.744,339.729 185.411,341.229 190.5,341.5C 194.239,342.303 197.905,343.303 201.5,344.5C 204.265,345.753 206.099,347.42 207,349.5C 220.424,349.246 233.924,349.08 247.5,349C 251.491,348.502 255.158,347.335 258.5,345.5C 277.765,340.534 295.099,331.867 310.5,319.5C 317.167,314.833 322.833,309.167 327.5,302.5C 329.392,301.298 331.226,299.965 333,298.5C 333,299.833 333,301.167 333,302.5C 333.893,303.711 334.726,303.711 335.5,302.5C 333.658,298.335 334.491,294.669 338,291.5C 338.44,289.134 338.94,286.801 339.5,284.5C 340.376,284.631 341.043,284.298 341.5,283.5C 344.156,278.027 346.989,272.694 350,267.5C 352.479,265.034 354.979,262.701 357.5,260.5C 360.745,260.12 363.745,258.953 366.5,257C 373.861,256.317 381.195,256.483 388.5,257.5C 395.596,259.59 400.929,263.923 404.5,270.5C 405.359,274.562 406.526,278.562 408,282.5C 408.167,285 408.333,287.5 408.5,290C 406.515,297.357 404.848,304.857 403.5,312.5C 403.672,313.492 403.338,314.158 402.5,314.5C 400.241,315.344 399.241,317.011 399.5,319.5C 398.5,319.5 397.5,319.5 396.5,319.5C 396.127,322.574 395.461,325.574 394.5,328.5C 394.573,330.027 393.906,331.027 392.5,331.5C 388.865,334.468 385.532,337.802 382.5,341.5C 381.749,340.624 381.249,339.624 381,338.5C 379.921,341.063 379.421,343.729 379.5,346.5C 378.5,346.5 377.5,346.5 376.5,346.5C 376.5,348.5 376.5,350.5 376.5,352.5C 374.856,352.714 373.356,352.38 372,351.5C 371.383,352.449 371.549,353.282 372.5,354C 371.128,354.402 369.795,354.902 368.5,355.5C 366.939,358.676 364.939,361.509 362.5,364C 357.975,364.382 356.309,366.882 357.5,371.5C 356.205,372.488 354.872,373.488 353.5,374.5C 351.409,374.682 349.409,374.348 347.5,373.5C 346.571,374.689 346.238,376.022 346.5,377.5C 345.5,377.5 344.5,377.5 343.5,377.5C 343.5,378.5 343.5,379.5 343.5,380.5C 342.5,380.5 341.5,380.5 340.5,380.5C 340.5,381.5 340.5,382.5 340.5,383.5C 336.921,383.234 336.587,381.901 339.5,379.5C 339,379.167 338.5,378.833 338,378.5C 335.929,379.775 334.429,381.609 333.5,384C 335.886,384.284 336.552,385.284 335.5,387C 333.157,386.876 330.823,386.376 328.5,385.5C 326.385,386.079 324.385,386.912 322.5,388C 323.025,388.692 323.692,389.192 324.5,389.5C 326.599,387.48 328.933,387.146 331.5,388.5C 330.133,389.84 328.8,391.173 327.5,392.5C 327.158,393.338 326.492,393.672 325.5,393.5C 321.345,394.742 317.678,396.742 314.5,399.5C 300.314,403.84 286.314,408.173 272.5,412.5C 269.215,412.928 266.215,413.928 263.5,415.5C 260.609,416.403 257.609,416.736 254.5,416.5C 236.486,416.681 218.486,416.348 200.5,415.5C 196.274,413.044 191.607,412.044 186.5,412.5C 186.167,412.5 185.833,412.5 185.5,412.5C 182.495,410.723 179.162,409.723 175.5,409.5C 174.209,409.737 173.209,409.404 172.5,408.5C 170.3,406.654 167.967,404.988 165.5,403.5C 159.23,401.528 152.897,399.861 146.5,398.5C 145.656,396.241 143.989,395.241 141.5,395.5C 139.847,395.34 138.514,394.674 137.5,393.5C 137.027,392.094 136.027,391.427 134.5,391.5C 130.827,390 127.494,388 124.5,385.5C 124.027,384.094 123.027,383.427 121.5,383.5C 118.467,381.984 115.8,379.984 113.5,377.5C 112.089,375.086 110.089,373.419 107.5,372.5C 101.43,366.765 96.0969,360.432 91.5,353.5C 89.5891,352.523 87.5891,351.857 85.5,351.5C 78.6344,343.97 72.9678,335.637 68.5,326.5C 68.7852,324.712 68.4519,323.045 67.5,321.5C 65.3355,318.2 63.0022,315.2 60.5,312.5C 58.659,310.151 57.3257,307.485 56.5,304.5C 55.4696,300.225 54.3029,295.892 53,291.5C 52.5831,290.244 51.7498,289.577 50.5,289.5C 49.596,288.791 49.2627,287.791 49.5,286.5C 49.2736,282.708 48.4403,279.041 47,275.5C 46.6174,274.944 46.1174,274.611 45.5,274.5C 45.5,274.167 45.5,273.833 45.5,273.5C 45.821,272.183 46.1543,270.849 46.5,269.5C 45.3167,261.815 43.3167,254.481 40.5,247.5C 40.3004,229.485 40.6337,211.485 41.5,193.5C 41.5,192.833 41.5,192.167 41.5,191.5C 43.0955,189.168 44.2622,186.501 45,183.5C 45.498,180.518 45.6646,177.518 45.5,174.5C 46.9143,171.924 48.4143,169.257 50,166.5C 51.9753,158.896 54.4753,151.562 57.5,144.5C 61.6106,137.882 65.9439,131.382 70.5,125C 69.6198,123.644 69.2865,122.144 69.5,120.5C 70.5,120.5 71.5,120.5 72.5,120.5C 72.5,118.833 72.5,117.167 72.5,115.5C 74.9,113.704 76.5667,111.37 77.5,108.5C 79.5869,107.415 80.9202,105.749 81.5,103.5C 82.4194,100.911 84.086,98.9108 86.5,97.5C 91.8871,94.4463 95.8871,90.113 98.5,84.5C 106.306,76.6916 114.973,70.0249 124.5,64.5C 126.764,63.7814 129.097,63.448 131.5,63.5C 131.529,60.3443 133.196,58.6777 136.5,58.5C 137.298,58.0431 137.631,57.3764 137.5,56.5C 144.702,52.0676 152.368,48.4009 160.5,45.5C 159,47.1786 157.167,48.5119 155,49.5C 154.667,50.8333 154.333,52.1667 154,53.5C 153.326,52.4216 152.326,51.7549 151,51.5C 148.842,52.6521 146.675,53.8187 144.5,55C 148.244,56.6161 151.91,58.4494 155.5,60.5C 157.091,57.3699 158.757,54.2033 160.5,51C 162.5,50.6667 164.5,50.3333 166.5,50C 167.833,49.3333 167.833,48.6667 166.5,48C 167.729,47.2189 169.062,46.7189 170.5,46.5C 174.614,46.0536 178.781,46.0536 183,46.5C 183.684,45.2161 183.517,44.0495 182.5,43C 183,42.8333 183.5,42.6667 184,42.5C 189.834,43.9405 195.667,43.1071 201.5,40C 211.398,39.533 221.064,38.6996 230.5,37.5C 235.401,38.0446 240.235,38.0446 245,37.5C 248.411,37.985 251.744,38.6517 255,39.5C 255.333,39.1667 255.667,38.8333 256,38.5C 258.82,39.6015 261.654,40.6015 264.5,41.5C 266.071,40.6906 267.738,40.3573 269.5,40.5C 269.5,41.5 269.5,42.5 269.5,43.5C 276.94,43.9051 277.274,42.9051 270.5,40.5C 271.729,39.7189 273.062,39.2189 274.5,39C 273.584,38.7216 272.918,38.2216 272.5,37.5 Z"/></g>
<g><path style="opacity:0.678" fill="#7186cc" d="M 182.5,38.5 C 182.586,39.4959 182.252,40.3292 181.5,41C 174.372,41.897 167.372,43.397 160.5,45.5C 167.364,41.9909 174.698,39.6576 182.5,38.5 Z"/></g>
<g><path style="opacity:1" fill="#7386cd" d="M 137.5,56.5 C 137.631,57.3764 137.298,58.0431 136.5,58.5C 133.196,58.6777 131.529,60.3443 131.5,63.5C 129.097,63.448 126.764,63.7814 124.5,64.5C 128.299,61.0482 132.632,58.3815 137.5,56.5 Z"/></g>
<g><path style="opacity:0.6" fill="#9dade3" d="M 366.5,86.5 C 369.243,88.2393 371.243,90.5726 372.5,93.5C 369.757,91.7607 367.757,89.4274 366.5,86.5 Z"/></g>
<g><path style="opacity:0.886" fill="#8795d1" d="M 98.5,84.5 C 95.8871,90.113 91.8871,94.4463 86.5,97.5C 89.7703,92.5603 93.7703,88.2269 98.5,84.5 Z"/></g>
<g><path style="opacity:0.851" fill="#8e9ee3" d="M 277.5,110.5 C 248.421,100.569 219.088,99.902 189.5,108.5C 190.987,107.196 192.654,106.03 194.5,105C 202.852,103.775 211.185,102.441 219.5,101C 239.099,98.4389 257.932,100.939 276,108.5C 277.03,108.836 277.53,109.503 277.5,110.5 Z"/></g>
<g><path style="opacity:0.608" fill="#93a4d5" d="M 81.5,103.5 C 80.9202,105.749 79.5869,107.415 77.5,108.5C 78.0798,106.251 79.4131,104.585 81.5,103.5 Z"/></g>
<g><path style="opacity:0.686" fill="#95a5d5" d="M 77.5,108.5 C 76.5667,111.37 74.9,113.704 72.5,115.5C 73.4333,112.63 75.1,110.296 77.5,108.5 Z"/></g>
<g><path style="opacity:0.035" fill="#b1c8f5" d="M 165.5,120.5 C 165.027,121.906 164.027,122.573 162.5,122.5C 162.973,121.094 163.973,120.427 165.5,120.5 Z"/></g>
<g><path style="opacity:0.553" fill="#a2b3e8" d="M 303.5,124.5 C 309.055,127.383 313.722,131.383 317.5,136.5C 312.533,132.868 307.867,128.868 303.5,124.5 Z"/></g>
<g><path style="opacity:1" fill="#768ad1" d="M 72.5,115.5 C 72.5,117.167 72.5,118.833 72.5,120.5C 71.5,120.5 70.5,120.5 69.5,120.5C 69.2865,122.144 69.6198,123.644 70.5,125C 65.9439,131.382 61.6106,137.882 57.5,144.5C 54.4753,151.562 51.9753,158.896 50,166.5C 48.4143,169.257 46.9143,171.924 45.5,174.5C 50.493,152.857 59.493,133.19 72.5,115.5 Z"/></g>
<g><path style="opacity:1" fill="#8595d9" d="M 162.5,122.5 C 155.509,128.158 148.843,134.158 142.5,140.5C 140.938,140.733 139.605,141.4 138.5,142.5C 138.5,141.5 138.5,140.5 138.5,139.5C 140.942,139.646 141.609,138.813 140.5,137C 141.793,136.51 143.127,136.343 144.5,136.5C 142.403,131.633 143.403,130.633 147.5,133.5C 151.325,130.507 154.659,127.007 157.5,123C 159.134,122.506 160.801,122.34 162.5,122.5 Z"/></g>
<g><path style="opacity:1" fill="#8a9adc" d="M 317.5,136.5 C 319.607,136.722 321.274,137.722 322.5,139.5C 324.211,142.196 325.878,144.862 327.5,147.5C 323.475,144.442 320.142,140.775 317.5,136.5 Z"/></g>
<g><path style="opacity:0.02" fill="#c0c4f1" d="M 142.5,140.5 C 141.167,142.5 139.5,144.167 137.5,145.5C 137.557,144.391 137.89,143.391 138.5,142.5C 139.605,141.4 140.938,140.733 142.5,140.5 Z"/></g>
<g><path style="opacity:1" fill="#7f90d6" d="M 134.5,148.5 C 131.883,153.114 128.883,157.447 125.5,161.5C 125.816,158.744 126.816,156.244 128.5,154C 128.095,153.055 127.428,152.388 126.5,152C 129.531,151.556 132.198,150.389 134.5,148.5 Z"/></g>
<g><path style="opacity:0.941" fill="#7c8cd6" d="M 402.5,135.5 C 410.863,148.839 411.53,162.506 404.5,176.5C 405.639,170.64 406.973,164.806 408.5,159C 406.658,151.099 404.658,143.266 402.5,135.5 Z"/></g>
<g><path style="opacity:0.663" fill="#8598d7" d="M 337.5,161.5 C 338.376,161.369 339.043,161.702 339.5,162.5C 342.096,167.013 344.096,171.68 345.5,176.5C 342.073,171.984 339.407,166.984 337.5,161.5 Z"/></g>
<g><path style="opacity:1" fill="#63beb0" d="M 247.5,160.5 C 251.565,162.589 255.898,164.423 260.5,166C 265.446,169.485 270.446,172.651 275.5,175.5C 275.966,177.201 275.966,178.701 275.5,180C 279.797,181.459 282.464,184.292 283.5,188.5C 284.822,188.33 285.989,188.663 287,189.5C 289.346,194.869 292.18,199.869 295.5,204.5C 295.5,204.833 295.5,205.167 295.5,205.5C 297.283,216.403 297.95,227.403 297.5,238.5C 289.904,268.259 270.904,285.759 240.5,291C 212.781,292.889 191.281,282.389 176,259.5C 172.743,254.227 170.577,248.561 169.5,242.5C 167.768,229.745 168.268,217.078 171,204.5C 172.015,201.79 173.515,199.457 175.5,197.5C 176.273,195.187 176.94,192.854 177.5,190.5C 180.988,188.022 183.655,184.855 185.5,181C 187.101,180.727 188.601,180.227 190,179.5C 193.092,176.089 195.925,172.422 198.5,168.5C 213.745,159.624 230.078,156.958 247.5,160.5 Z"/></g>
<g><path style="opacity:0.427" fill="#94c7c0" d="M 247.5,160.5 C 258.615,162.388 267.948,167.388 275.5,175.5C 270.446,172.651 265.446,169.485 260.5,166C 255.898,164.423 251.565,162.589 247.5,160.5 Z"/></g>
<g><path style="opacity:1" fill="#788bdb" d="M 125.5,162.5 C 121.801,169.899 118.134,177.232 114.5,184.5C 114.612,180.604 115.612,176.937 117.5,173.5C 115.843,170.453 116.843,169.12 120.5,169.5C 120.011,165.513 121.678,163.18 125.5,162.5 Z"/></g>
<g><path style="opacity:0.655" fill="#8390d5" d="M 345.5,176.5 C 348.458,178.403 350.458,181.07 351.5,184.5C 348.529,182.557 346.529,179.891 345.5,176.5 Z"/></g>
<g><path style="opacity:0.969" fill="#8594de" d="M 403.5,177.5 C 402.232,181.767 399.565,184.767 395.5,186.5C 395.5,185.167 395.5,183.833 395.5,182.5C 396.833,182.5 398.167,182.5 399.5,182.5C 399.5,180.833 399.5,179.167 399.5,177.5C 400.833,177.5 402.167,177.5 403.5,177.5 Z"/></g>
<g><path style="opacity:0.8" fill="#798bcb" d="M 45.5,174.5 C 45.6646,177.518 45.498,180.518 45,183.5C 44.2622,186.501 43.0955,189.168 41.5,191.5C 42.0873,185.544 43.4207,179.878 45.5,174.5 Z"/></g>
<g><path style="opacity:1" fill="#85c5bc" d="M 198.5,168.5 C 195.925,172.422 193.092,176.089 190,179.5C 188.601,180.227 187.101,180.727 185.5,181C 183.655,184.855 180.988,188.022 177.5,190.5C 176.94,192.854 176.273,195.187 175.5,197.5C 173.515,199.457 172.015,201.79 171,204.5C 168.268,217.078 167.768,229.745 169.5,242.5C 162.662,215.837 169.328,193.004 189.5,174C 192.222,171.642 195.222,169.809 198.5,168.5 Z"/></g>
<g><path style="opacity:1" fill="#86c1b9" d="M 275.5,175.5 C 285.219,182.915 291.885,192.581 295.5,204.5C 292.18,199.869 289.346,194.869 287,189.5C 285.989,188.663 284.822,188.33 283.5,188.5C 282.464,184.292 279.797,181.459 275.5,180C 275.966,178.701 275.966,177.201 275.5,175.5 Z"/></g>
<g><path style="opacity:0.502" fill="#8994db" d="M 395.5,186.5 C 389.829,191.288 383.162,193.954 375.5,194.5C 372.326,194.009 369.326,193.343 366.5,192.5C 374.999,193.275 382.999,191.775 390.5,188C 389.289,187.107 389.289,186.274 390.5,185.5C 392.071,186.309 393.738,186.643 395.5,186.5 Z"/></g>
<g><path style="opacity:0.749" fill="#7e90cf" d="M 41.5,193.5 C 40.6337,211.485 40.3004,229.485 40.5,247.5C 37.6354,229.445 37.9688,211.445 41.5,193.5 Z"/></g>
<g><path style="opacity:0.804" fill="#9dccc6" d="M 295.5,205.5 C 299.844,216.296 300.51,227.296 297.5,238.5C 297.95,227.403 297.283,216.403 295.5,205.5 Z"/></g>
<g><path style="opacity:0.976" fill="#7587d6" d="M 110.5,199.5 C 109.13,210.451 108.464,221.451 108.5,232.5C 108.5,235.167 108.5,237.833 108.5,240.5C 106.577,231.728 106.077,222.728 107,213.5C 107.775,208.564 108.942,203.898 110.5,199.5 Z"/></g>
<g><path style="opacity:0.6" fill="#8192ce" d="M 108.5,232.5 C 109.702,240.719 111.036,249.052 112.5,257.5C 111.883,257.389 111.383,257.056 111,256.5C 109.97,251.186 109.137,245.853 108.5,240.5C 108.5,237.833 108.5,235.167 108.5,232.5 Z"/></g>
<g><path style="opacity:0.872" fill="#6d84d0" d="M 388.5,257.5 C 381.195,256.483 373.861,256.317 366.5,257C 363.745,258.953 360.745,260.12 357.5,260.5C 360.824,257.436 364.824,255.603 369.5,255C 373.833,254.333 378.167,254.333 382.5,255C 384.852,255.24 386.852,256.073 388.5,257.5 Z"/></g>
<g><path style="opacity:1" fill="#7386cf" d="M 40.5,247.5 C 43.3167,254.481 45.3167,261.815 46.5,269.5C 46.1543,270.849 45.821,272.183 45.5,273.5C 42.5735,265.197 40.9069,256.53 40.5,247.5 Z"/></g>
<g><path style="opacity:0.714" fill="#818fc8" d="M 112.5,257.5 C 114.204,260.939 115.538,264.605 116.5,268.5C 115.542,268.047 114.708,267.381 114,266.5C 113.304,263.522 112.804,260.522 112.5,257.5 Z"/></g>
<g><path style="opacity:0.612" fill="#7f8dcb" d="M 45.5,274.5 C 46.1174,274.611 46.6174,274.944 47,275.5C 48.4403,279.041 49.2736,282.708 49.5,286.5C 47.5947,282.784 46.2613,278.784 45.5,274.5 Z"/></g>
<g><path style="opacity:0.773" fill="#8090d0" d="M 116.5,268.5 C 118.631,273.542 120.964,278.542 123.5,283.5C 119.067,279.661 116.734,274.661 116.5,268.5 Z"/></g>
<g><path style="opacity:0.894" fill="#6f85ca" d="M 357.5,260.5 C 354.979,262.701 352.479,265.034 350,267.5C 346.989,272.694 344.156,278.027 341.5,283.5C 341.043,284.298 340.376,284.631 339.5,284.5C 341.877,278.079 345.044,272.079 349,266.5C 351.279,263.619 354.112,261.619 357.5,260.5 Z"/></g>
<g><path style="opacity:0.875" fill="#697ac7" d="M 50.5,289.5 C 51.7498,289.577 52.5831,290.244 53,291.5C 54.3029,295.892 55.4696,300.225 56.5,304.5C 53.7344,299.883 51.7344,294.883 50.5,289.5 Z"/></g>
<g><path style="opacity:1" fill="#7187d8" d="M 339.5,284.5 C 338.94,286.801 338.44,289.134 338,291.5C 334.491,294.669 333.658,298.335 335.5,302.5C 334.726,303.711 333.893,303.711 333,302.5C 333,301.167 333,299.833 333,298.5C 331.226,299.965 329.392,301.298 327.5,302.5C 331.115,296.223 335.115,290.223 339.5,284.5 Z"/></g>
<g><path style="opacity:0.659" fill="#a0b2df" d="M 131.5,296.5 C 133.587,297.585 134.92,299.251 135.5,301.5C 133.413,300.415 132.08,298.749 131.5,296.5 Z"/></g>
<g><path style="opacity:1" fill="#7789d5" d="M 404.5,270.5 C 412.684,284.674 412.351,298.674 403.5,312.5C 404.848,304.857 406.515,297.357 408.5,290C 408.333,287.5 408.167,285 408,282.5C 406.526,278.562 405.359,274.562 404.5,270.5 Z"/></g>
<g><path style="opacity:0.584" fill="#a5b5e8" d="M 135.5,301.5 C 137.914,302.911 139.581,304.911 140.5,307.5C 138.086,306.089 136.419,304.089 135.5,301.5 Z"/></g>
<g><path style="opacity:0.8" fill="#9aace2" d="M 140.5,307.5 C 143.167,309.5 145.5,311.833 147.5,314.5C 144.167,313.167 141.833,310.833 140.5,307.5 Z"/></g>
<g><path style="opacity:0.38" fill="#93a3d7" d="M 327.5,302.5 C 322.833,309.167 317.167,314.833 310.5,319.5C 315.833,313.5 321.5,307.833 327.5,302.5 Z"/></g>
<g><path style="opacity:0.475" fill="#697bc8" d="M 60.5,312.5 C 63.0022,315.2 65.3355,318.2 67.5,321.5C 68.4519,323.045 68.7852,324.712 68.5,326.5C 64.8255,322.493 62.1588,317.827 60.5,312.5 Z"/></g>
<g><path style="opacity:0.98" fill="#8a96de" d="M 402.5,314.5 C 400.336,319.5 397.669,324.167 394.5,328.5C 395.461,325.574 396.127,322.574 396.5,319.5C 397.5,319.5 398.5,319.5 399.5,319.5C 399.241,317.011 400.241,315.344 402.5,314.5 Z"/></g>
<g><path style="opacity:1" fill="#6583d8" d="M 150.5,317.5 C 155.206,321.178 159.872,324.844 164.5,328.5C 156.495,329.157 151.828,325.49 150.5,317.5 Z"/></g>
<g><path style="opacity:1" fill="#5b7ee5" d="M 74.5,323.5 C 76.4514,325.48 77.9514,327.813 79,330.5C 79.3333,329.833 79.6667,329.167 80,328.5C 81.0113,329.337 82.1779,329.67 83.5,329.5C 83.7845,332.254 84.4512,334.92 85.5,337.5C 87.2756,335.553 89.2756,335.22 91.5,336.5C 90.6171,337.548 89.9504,338.715 89.5,340C 90.7753,342.071 92.6086,343.571 95,344.5C 95.4935,346.134 95.6602,347.801 95.5,349.5C 94.325,349.719 93.325,349.386 92.5,348.5C 91.5467,346.545 90.2134,344.878 88.5,343.5C 87.5713,344.689 87.238,346.022 87.5,347.5C 83.6482,347.511 81.8149,345.511 82,341.5C 81.6667,341.833 81.3333,342.167 81,342.5C 78.997,339.778 76.997,337.112 75,334.5C 74.3333,333.833 74.3333,333.167 75,332.5C 75.8928,333.711 76.7261,333.711 77.5,332.5C 74.4127,330.033 73.4127,327.033 74.5,323.5 Z"/></g>
<g><path style="opacity:1" fill="#7c8cdb" d="M 392.5,331.5 C 389.916,335.933 387.082,340.266 384,344.5C 381.715,347.432 379.215,350.098 376.5,352.5C 376.5,350.5 376.5,348.5 376.5,346.5C 377.5,346.5 378.5,346.5 379.5,346.5C 379.421,343.729 379.921,341.063 381,338.5C 381.249,339.624 381.749,340.624 382.5,341.5C 385.532,337.802 388.865,334.468 392.5,331.5 Z"/></g>
<g><path style="opacity:0.839" fill="#778cd7" d="M 172.5,332.5 C 178.534,335.517 184.534,338.517 190.5,341.5C 185.411,341.229 180.744,339.729 176.5,337C 174.808,335.693 173.475,334.193 172.5,332.5 Z"/></g>
<g><path style="opacity:0.963" fill="#6b84d1" d="M 201.5,344.5 C 220.428,348.102 239.428,348.435 258.5,345.5C 255.158,347.335 251.491,348.502 247.5,349C 233.924,349.08 220.424,349.246 207,349.5C 206.099,347.42 204.265,345.753 201.5,344.5 Z"/></g>
<g><path style="opacity:0.937" fill="#8a9bd8" d="M 85.5,351.5 C 87.5891,351.857 89.5891,352.523 91.5,353.5C 96.0969,360.432 101.43,366.765 107.5,372.5C 99.555,366.224 92.2216,359.224 85.5,351.5 Z"/></g>
<g><path style="opacity:1" fill="#7586da" d="M 376.5,352.5 C 370.5,359.167 364.167,365.5 357.5,371.5C 356.309,366.882 357.975,364.382 362.5,364C 364.939,361.509 366.939,358.676 368.5,355.5C 369.795,354.902 371.128,354.402 372.5,354C 371.549,353.282 371.383,352.449 372,351.5C 373.356,352.38 374.856,352.714 376.5,352.5 Z"/></g>
<g><path style="opacity:0.455" fill="#a7ade4" d="M 107.5,372.5 C 110.089,373.419 112.089,375.086 113.5,377.5C 110.911,376.581 108.911,374.914 107.5,372.5 Z"/></g>
<g><path style="opacity:0.196" fill="#bbc2f2" d="M 121.5,383.5 C 123.027,383.427 124.027,384.094 124.5,385.5C 122.973,385.573 121.973,384.906 121.5,383.5 Z"/></g>
<g><path style="opacity:1" fill="#778dde" d="M 353.5,374.5 C 345.665,381.663 336.998,387.663 327.5,392.5C 328.8,391.173 330.133,389.84 331.5,388.5C 328.933,387.146 326.599,387.48 324.5,389.5C 323.692,389.192 323.025,388.692 322.5,388C 324.385,386.912 326.385,386.079 328.5,385.5C 330.823,386.376 333.157,386.876 335.5,387C 336.552,385.284 335.886,384.284 333.5,384C 334.429,381.609 335.929,379.775 338,378.5C 338.5,378.833 339,379.167 339.5,379.5C 336.587,381.901 336.921,383.234 340.5,383.5C 340.5,382.5 340.5,381.5 340.5,380.5C 341.5,380.5 342.5,380.5 343.5,380.5C 343.5,379.5 343.5,378.5 343.5,377.5C 344.5,377.5 345.5,377.5 346.5,377.5C 346.238,376.022 346.571,374.689 347.5,373.5C 349.409,374.348 351.409,374.682 353.5,374.5 Z"/></g>
<g><path style="opacity:0.192" fill="#bdc4ea" d="M 134.5,391.5 C 136.027,391.427 137.027,392.094 137.5,393.5C 135.973,393.573 134.973,392.906 134.5,391.5 Z"/></g>
<g><path style="opacity:0.906" fill="#99a3dc" d="M 141.5,395.5 C 143.989,395.241 145.656,396.241 146.5,398.5C 144.566,397.89 142.899,396.89 141.5,395.5 Z"/></g>
<g><path style="opacity:0.243" fill="#b1c1ea" d="M 325.5,393.5 C 322.322,396.258 318.655,398.258 314.5,399.5C 317.678,396.742 321.345,394.742 325.5,393.5 Z"/></g>
<g><path style="opacity:1" fill="#8091d7" d="M 146.5,398.5 C 152.897,399.861 159.23,401.528 165.5,403.5C 167.967,404.988 170.3,406.654 172.5,408.5C 163.349,406.251 154.682,402.918 146.5,398.5 Z"/></g>
<g><path style="opacity:0.941" fill="#8290d6" d="M 314.5,399.5 C 302.594,405.803 289.928,410.136 276.5,412.5C 275.167,412.5 273.833,412.5 272.5,412.5C 286.314,408.173 300.314,403.84 314.5,399.5 Z"/></g>
<g><path style="opacity:0.549" fill="#9cafdc" d="M 175.5,409.5 C 179.162,409.723 182.495,410.723 185.5,412.5C 181.838,412.277 178.505,411.277 175.5,409.5 Z"/></g>
<g><path style="opacity:0.737" fill="#879ada" d="M 186.5,412.5 C 191.607,412.044 196.274,413.044 200.5,415.5C 195.578,415.13 190.911,414.13 186.5,412.5 Z"/></g>
<g><path style="opacity:0.145" fill="#9eaae0" d="M 272.5,412.5 C 273.833,412.5 275.167,412.5 276.5,412.5C 272.425,414.118 268.092,415.118 263.5,415.5C 266.215,413.928 269.215,412.928 272.5,412.5 Z"/></g>
<g><path style="opacity:0.566" fill="#92a1e2" d="M 200.5,415.5 C 218.486,416.348 236.486,416.681 254.5,416.5C 236.461,419.098 218.461,418.765 200.5,415.5 Z"/></g>
</svg>
